<svg width="36" height="36" viewBox="0 0 36 36" fill="none" xmlns="http://www.w3.org/2000/svg">
<rect width="36" height="36" rx="18" fill="#423EAF"/>
<path d="M13.9531 17.989H15.5974V24.7581C15.5974 24.8917 15.7056 25 15.8393 25H18.6272C18.7608 25 18.8691 24.8917 18.8691 24.7581V18.0209H20.7593C20.8822 18.0209 20.9856 17.9287 20.9996 17.8066L21.2867 15.3145C21.2946 15.246 21.2729 15.1773 21.227 15.1259C21.1811 15.0744 21.1154 15.0449 21.0464 15.0449H18.8692V13.4828C18.8692 13.0119 19.1227 12.7731 19.6229 12.7731C19.6941 12.7731 21.0464 12.7731 21.0464 12.7731C21.1801 12.7731 21.2884 12.6648 21.2884 12.5312V10.2437C21.2884 10.1101 21.1801 10.0018 21.0464 10.0018H19.0846C19.0707 10.0011 19.04 10 18.9947 10C18.6543 10 17.4711 10.0668 16.5365 10.9267C15.5009 11.8795 15.6448 13.0204 15.6792 13.2182V15.0449H13.9531C13.8195 15.0449 13.7112 15.1532 13.7112 15.2868V17.747C13.7112 17.8807 13.8195 17.989 13.9531 17.989Z" fill="white"/>
</svg>
