<svg width="36" height="36" viewBox="0 0 36 36" fill="none" xmlns="http://www.w3.org/2000/svg">
<rect width="36" height="36" rx="18" fill="#423EAF"/>
<g clip-path="url(#clip0_273_2265)">
<path d="M13.4912 14.8257H10.48C10.3463 14.8257 10.238 14.934 10.238 15.0676V24.7416C10.238 24.8752 10.3463 24.9835 10.48 24.9835H13.4912C13.6249 24.9835 13.7332 24.8752 13.7332 24.7416V15.0676C13.7332 14.934 13.6249 14.8257 13.4912 14.8257Z" fill="white"/>
<path d="M11.9871 10.0166C10.8914 10.0166 10 10.907 10 12.0015C10 13.0964 10.8914 13.9872 11.9871 13.9872C13.0819 13.9872 13.9725 13.0964 13.9725 12.0015C13.9726 10.907 13.0819 10.0166 11.9871 10.0166Z" fill="white"/>
<path d="M21.1514 14.585C19.942 14.585 19.0479 15.1049 18.5056 15.6956V15.0673C18.5056 14.9337 18.3973 14.8254 18.2637 14.8254H15.3799C15.2462 14.8254 15.1379 14.9337 15.1379 15.0673V24.7413C15.1379 24.8749 15.2462 24.9832 15.3799 24.9832H18.3846C18.5182 24.9832 18.6265 24.8749 18.6265 24.7413V19.9549C18.6265 18.342 19.0646 17.7137 20.1889 17.7137C21.4134 17.7137 21.5107 18.721 21.5107 20.0379V24.7413C21.5107 24.875 21.619 24.9833 21.7526 24.9833H24.7585C24.8921 24.9833 25.0004 24.875 25.0004 24.7413V19.435C25.0004 17.0367 24.5431 14.585 21.1514 14.585Z" fill="white"/>
</g>
<defs>
<clipPath id="clip0_273_2265">
<rect width="15" height="15" fill="white" transform="translate(10 10)"/>
</clipPath>
</defs>
</svg>
