<svg xmlns="http://www.w3.org/2000/svg" width="24" height="24" viewBox="0 0 24 24" fill="none">
    <path
            opacity="0.1"
            fill-rule="evenodd"
            clip-rule="evenodd"
            d="M12 4C9.87827 4 7.84344 4.84285 6.34315 6.34315C4.84285 7.84344 4 9.87827 4 12C4 14.1217 4.84285 16.1566 6.34315 17.6569C7.84344 19.1571 9.87827 20 12 20C14.1217 20 16.1566 19.1571 17.6569 17.6569C19.1571 16.1566 20 14.1217 20 12C20 9.87827 19.1571 7.84344 17.6569 6.34315C16.1566 4.84285 14.1217 4 12 4ZM2 12C2 6.477 6.477 2 12 2C17.523 2 22 6.477 22 12C22 17.523 17.523 22 12 22C6.477 22 2 17.523 2 12Z"
            fill="black"/>
    <path
            fill-rule="evenodd"
            clip-rule="evenodd"
            d="M12 4.00001C9.93742 3.99586 7.95378 4.79248 6.46698 6.22201C6.37216 6.31289 6.26038 6.3842 6.138 6.43187C6.01563 6.47954 5.88507 6.50265 5.75376 6.49986C5.62246 6.49708 5.49299 6.46846 5.37275 6.41564C5.25251 6.36281 5.14385 6.28683 5.05298 6.19201C4.9621 6.0972 4.89079 5.98541 4.84312 5.86304C4.79545 5.74067 4.77234 5.6101 4.77513 5.4788C4.77791 5.3475 4.80653 5.21803 4.85935 5.09779C4.91218 4.97755 4.98816 4.86889 5.08298 4.77801C6.94216 2.99162 9.42165 1.99581 12 2.00001C12.2652 2.00001 12.5195 2.10537 12.7071 2.29291C12.8946 2.48044 13 2.7348 13 3.00001C13 3.26523 12.8946 3.51958 12.7071 3.70712C12.5195 3.89466 12.2652 4.00001 12 4.00001Z"
            fill="black"/>
</svg>